<svg version="1.1" id="Layer_1" xmlns="http://www.w3.org/2000/svg" xmlns:xlink="http://www.w3.org/1999/xlink" x="0px" y="0px"
	 width="100%" viewBox="0 0 1024 1024" enable-background="new 0 0 1024 1024" xml:space="preserve">
<path fill="#000000" opacity="1.000000" stroke="none" 
	d="
M670.000000,497.182861 
	C605.670715,497.208466 541.841064,497.326630 478.012543,497.112213 
	C471.688202,497.090973 467.775635,499.031799 464.688141,504.405853 
	C461.211945,510.456543 454.543091,512.455994 448.794220,509.908569 
	C444.109863,507.832825 440.868500,502.046387 442.324677,497.166809 
	C443.496490,493.240173 443.717834,488.948395 446.596436,485.433075 
	C414.450439,455.632355 403.423004,419.154083 411.954010,375.227966 
	C386.657349,396.561676 370.795929,422.263519 361.935272,452.528625 
	C353.041595,482.906525 352.956787,513.214966 363.186096,543.110901 
	C360.218567,545.551941 357.041687,545.440186 354.277527,546.463196 
	C348.068878,548.761169 345.210907,552.554504 345.102448,559.186890 
	C345.016510,564.440796 345.085175,569.697266 345.085175,575.203125 
	C341.912201,574.909546 341.672058,572.609314 340.924500,570.955627 
	C330.626343,548.174133 325.798309,524.269714 325.528870,499.267761 
	C325.128693,462.131348 334.392517,427.741150 354.202423,396.366730 
	C374.988312,363.446594 402.579010,338.022888 438.407806,322.095734 
	C442.542603,320.257629 445.193024,318.391510 445.115417,313.098480 
	C445.038574,307.859955 448.191711,303.603058 453.034180,301.211395 
	C460.034637,297.753998 466.840759,300.528900 470.246185,307.978180 
	C473.514313,315.127136 470.900696,323.460144 464.353577,326.297943 
	C462.393005,327.147705 460.176117,328.080627 458.141571,327.951660 
	C453.135834,327.634247 450.150726,330.443787 447.188385,333.749969 
	C428.917175,354.141693 419.341125,377.996033 420.471558,405.373566 
	C421.946655,441.098999 438.295532,468.521881 468.905121,487.275909 
	C470.853943,488.469910 472.776855,488.929810 475.068451,488.388275 
	C485.434906,485.938690 495.826782,483.584747 506.570892,483.640137 
	C509.263733,483.654053 510.587555,482.349823 510.640564,479.715607 
	C510.700836,476.718750 510.949860,473.701355 510.701904,470.727478 
	C510.059753,463.026062 508.296356,461.597168 500.600098,461.382355 
	C489.290802,461.066681 480.896820,455.871063 475.720306,445.789001 
	C472.302094,439.131561 470.959595,431.769104 468.189697,424.803894 
	C493.619141,419.146210 513.934814,433.205811 511.747040,453.160767 
	C508.562927,452.202911 508.028961,448.444061 504.851074,447.531738 
	C508.012329,451.943939 510.716034,456.621918 513.825745,462.705353 
	C518.862915,449.789154 525.743896,439.240814 534.741699,430.089172 
	C526.958313,434.033417 522.324951,441.079285 516.970947,447.744019 
	C515.067566,437.091675 518.094849,427.916595 524.824219,419.922455 
	C534.880798,407.975769 556.413025,402.934998 572.769775,408.800537 
	C567.796143,420.142822 566.467224,432.946228 558.519775,443.039307 
	C550.500427,453.223541 539.903381,457.825256 526.954956,456.525116 
	C524.177185,456.246185 522.468018,456.900940 521.595581,459.606781 
	C519.682983,465.538239 518.680054,471.573364 519.398804,477.811188 
	C519.828125,481.536774 521.286133,483.695740 525.715271,483.793030 
	C535.878357,484.016327 545.933167,485.595764 555.791260,488.076263 
	C558.839783,488.843353 561.181824,488.386963 563.762756,486.768494 
	C590.763550,469.836365 606.657959,445.362885 610.322021,414.001099 
	C613.649780,385.516663 606.255981,359.471222 586.905396,337.498993 
	C584.773254,335.077972 582.882080,333.323120 578.952942,333.832642 
	C573.733643,334.509430 568.204285,329.089813 566.733582,323.177826 
	C565.070923,316.494232 567.457520,310.549927 573.109558,307.297424 
	C578.250000,304.339355 583.769470,305.124390 588.177368,309.369324 
	C589.962952,311.088959 590.867065,312.889832 590.468262,315.564209 
	C589.711548,320.638458 591.545898,324.131500 596.472839,326.752350 
	C651.956848,356.267059 685.223083,402.264618 697.421570,463.730927 
	C699.207642,472.730499 699.780090,481.854126 700.347168,490.993805 
	C700.628784,495.534027 699.167358,497.318878 694.498291,497.177155 
	C686.506287,496.934601 678.500183,497.155640 670.000000,497.182861 
M602.778564,465.212250 
	C599.542664,469.479248 596.306763,473.746216 592.502930,478.762024 
	C617.469482,478.762024 641.280334,478.744934 665.091187,478.779144 
	C668.974731,478.784729 668.751160,476.458954 668.372070,473.716370 
	C664.835144,448.131561 655.217590,424.969086 640.443970,403.904907 
	C634.843567,395.919861 628.574402,388.471375 620.551941,381.293427 
	C625.249390,411.910583 620.080078,439.532532 602.778564,465.212250 
M584.660645,320.218048 
	C584.879639,317.199341 583.628601,315.315369 580.465759,315.352295 
	C578.510620,315.375092 576.910095,316.382812 576.395691,318.421478 
	C575.900452,320.384003 576.440247,322.228058 578.286316,323.136719 
	C580.947021,324.446350 583.124695,323.652924 584.660645,320.218048 
M457.649689,500.868408 
	C459.699341,498.235199 459.062653,495.897003 456.562531,494.135803 
	C454.303528,492.544464 452.512421,493.918335 451.107666,495.714294 
	C449.983582,497.151398 449.909821,498.814850 451.028992,500.270935 
	C452.685883,502.426575 454.788361,502.696259 457.649689,500.868408 
M460.013031,310.429993 
	C457.175262,310.073761 455.573578,311.406433 455.213745,314.151306 
	C454.940643,316.234558 455.991302,317.725586 457.942291,318.330261 
	C459.944092,318.950714 461.551208,317.988800 462.593903,316.337097 
	C464.222321,313.757599 462.967163,311.990845 460.013031,310.429993 
z"/>
<path fill="#000000" opacity="1.000000" stroke="none" 
	d="
M610.981384,642.981628 
	C614.138550,644.621155 616.258362,643.138123 617.336060,640.351624 
	C618.413147,637.566711 616.753784,635.876526 614.330444,634.347046 
	C607.361145,629.948486 602.377563,623.377869 596.726074,617.546570 
	C595.452820,616.232727 595.644592,614.457092 595.642456,612.797485 
	C595.633606,605.965027 595.494751,599.127869 595.710510,592.302124 
	C595.825806,588.654846 594.563232,586.106018 591.907532,583.606750 
	C581.115234,573.450378 570.541016,563.062317 559.870667,552.776001 
	C558.003418,550.975952 556.832153,549.041199 556.867981,546.242065 
	C557.030334,533.579163 556.990051,520.913635 557.081421,508.249542 
	C557.096680,506.141754 556.805603,503.694702 559.866333,503.206696 
	C563.548828,502.619537 564.439392,504.551178 564.407043,507.839203 
	C564.295776,519.170044 564.451233,530.504028 564.283936,541.833496 
	C564.233337,545.264954 565.259033,547.802429 567.729858,550.200989 
	C578.010559,560.181458 588.073242,570.386719 598.364258,580.356323 
	C601.054138,582.962158 602.808899,585.592712 602.304810,589.495300 
	C602.050842,591.461792 602.536865,593.531799 602.227112,595.481750 
	C600.278870,607.744934 604.113037,617.531006 614.256165,624.853699 
	C615.840149,625.997253 616.854248,627.790283 619.245972,627.633972 
	C621.383240,627.494385 621.850037,629.236145 622.273682,630.943970 
	C623.011475,633.918396 625.137512,635.239075 627.891052,634.190735 
	C630.517090,633.190857 632.199890,630.923828 631.738525,627.865601 
	C631.263184,624.714600 628.906921,623.962952 626.149719,624.268799 
	C623.282776,624.586914 620.450012,626.943359 617.558228,624.685730 
	C612.951294,621.089111 608.847473,616.942139 605.170105,612.403442 
	C604.165649,611.163696 604.708374,609.507996 604.697510,608.023193 
	C604.639893,600.194824 606.238708,591.850342 604.025635,584.684692 
	C601.842407,577.615906 593.725220,573.708313 588.719849,567.937622 
	C585.315369,564.012573 580.708374,561.118042 578.107239,556.636414 
	C579.785461,554.546204 581.553955,554.986145 583.165955,554.952576 
	C586.497803,554.883240 589.894165,555.296997 593.151855,554.790649 
	C601.360229,553.514648 607.791199,556.017639 612.551392,562.821533 
	C615.636963,567.231812 619.890076,568.447998 625.141846,568.133850 
	C630.695190,567.801636 636.588684,567.005127 640.463623,572.864136 
	C641.569153,574.535828 643.863098,573.744873 645.652954,573.907288 
	C651.247986,574.415100 657.210449,572.370789 662.141418,577.322632 
	C663.807495,578.995789 667.004028,578.476318 668.730347,575.970398 
	C670.184692,573.859253 669.569458,571.692139 667.992493,570.028687 
	C665.934204,567.857544 663.700806,568.255432 661.296326,569.927612 
	C655.368225,574.050232 643.941772,573.105652 638.962708,568.111511 
	C637.668335,566.813171 636.329285,566.176086 634.571655,566.203064 
	C633.738892,566.215820 632.886414,566.068176 632.075317,566.197144 
	C622.693359,567.688782 615.136536,565.056946 609.871704,556.757812 
	C607.838806,553.553345 604.857544,552.609497 600.910828,552.814880 
	C593.100159,553.221375 585.252319,552.999207 577.421387,552.907410 
	C571.311462,552.835815 566.827087,548.304077 566.818970,542.213806 
	C566.803955,530.882019 566.900879,519.550110 566.932129,508.218262 
	C566.939514,505.545197 567.089294,503.044403 570.767334,503.189758 
	C574.195312,503.325256 574.103882,505.845795 574.120300,508.210449 
	C574.194336,518.875305 574.437195,529.545471 574.180786,540.203125 
	C574.072205,544.716675 575.642517,545.943481 579.952087,545.797729 
	C588.607727,545.504944 597.283875,545.854309 605.943604,545.630127 
	C609.773682,545.531006 612.795410,546.409119 614.938904,549.705383 
	C619.296326,556.406006 625.006348,558.942200 633.369812,558.171936 
	C644.108459,557.182983 655.010132,557.973022 665.841614,557.976685 
	C668.394653,557.977600 670.645020,558.308044 672.623779,560.373962 
	C674.678528,562.519226 677.623108,562.856262 679.812866,560.769348 
	C681.816467,558.859924 681.661865,555.995056 679.851379,553.950928 
	C677.635437,551.449097 675.015137,552.332825 672.730652,554.178406 
	C671.398499,555.254639 670.066772,556.103882 668.268005,556.106995 
	C654.444641,556.130859 640.620972,556.149719 626.798157,556.261230 
	C624.096191,556.283020 622.279419,554.819702 621.006287,552.900269 
	C615.692322,544.888855 607.920593,543.020508 598.980774,543.374023 
	C592.991943,543.610779 586.984314,543.390076 580.985352,543.341187 
	C578.903320,543.324280 576.937927,543.181030 576.785339,540.303101 
	C576.629517,537.362976 578.409363,536.354004 580.791565,536.367249 
	C592.444641,536.431946 604.097351,536.615906 615.749329,536.807617 
	C617.737244,536.840332 619.330322,538.043823 620.309998,539.570007 
	C625.975159,548.395630 634.538757,549.901917 644.101074,549.639099 
	C650.903564,549.452087 656.779907,548.836060 661.443115,542.460876 
	C666.600830,535.409851 675.073730,534.975525 682.325317,539.778259 
	C684.759033,541.390198 687.381836,541.724060 689.539001,539.280823 
	C691.067078,537.550110 691.054138,535.554993 689.335205,533.912842 
	C687.090881,531.768738 684.428284,531.451721 682.203796,533.657410 
	C680.139038,535.704712 677.953064,535.917175 675.356812,535.517944 
	C668.892517,534.523804 663.173035,535.475220 659.220520,541.501831 
	C656.092224,546.271851 651.564209,548.116394 645.905518,547.177734 
	C645.094543,547.043213 644.224426,547.047546 643.411499,547.176025 
	C633.971863,548.667908 626.493469,545.873962 621.427612,537.425964 
	C619.930664,534.929626 617.498901,534.205505 614.565430,534.260254 
	C604.236877,534.453125 593.904480,534.442627 583.573669,534.517822 
	C576.732788,534.567627 576.547058,534.339172 576.651001,527.661499 
	C576.739075,521.996826 576.450745,516.315002 576.804016,510.670502 
	C576.970154,508.016357 574.637024,503.380951 579.886597,503.319519 
	C585.574402,503.252930 582.867004,508.141937 583.262634,510.931702 
	C583.750916,514.374695 583.739441,517.908997 583.698914,521.401062 
	C583.652344,525.415833 585.314514,526.838928 589.418823,526.757446 
	C602.079163,526.505981 614.747009,526.646545 627.411743,526.597778 
	C633.212585,526.575439 637.529541,529.610291 639.007874,535.367981 
	C639.872498,538.735107 641.652710,540.320068 645.035950,539.748657 
	C648.090027,539.232910 649.156494,537.046143 648.701294,534.214539 
	C648.156555,530.825867 645.553772,529.963379 642.708557,530.501953 
	C640.299561,530.957764 638.372131,530.722290 636.946411,528.752136 
	C634.623901,525.542847 631.441956,524.962952 627.732361,524.998230 
	C616.068542,525.109375 604.402649,525.016418 592.737610,524.978271 
	C586.026978,524.956299 585.813721,524.720703 585.845215,517.839417 
	C585.860474,514.506592 586.046997,511.167419 585.897095,507.842804 
	C585.732849,504.202942 587.232483,502.715912 590.888428,502.823334 
	C597.716370,503.023865 604.561523,502.772339 611.381409,503.092468 
	C638.036743,504.343536 664.683960,502.692047 691.335815,503.013184 
	C700.835266,503.127625 701.030090,502.976593 700.129944,512.392944 
	C696.435181,551.043030 683.091919,585.836426 657.942566,615.694702 
	C627.582764,651.739075 589.214478,674.065918 542.654419,681.953369 
	C536.105896,683.062744 529.416138,683.326355 522.798828,684.045837 
	C518.885315,684.471191 517.513489,682.805420 517.540344,678.906250 
	C517.680664,658.576416 517.666809,638.245239 517.616699,617.914734 
	C517.609253,614.887024 518.169067,613.112427 521.707214,612.389038 
	C527.109314,611.284851 531.020813,607.806274 532.355591,602.273193 
	C533.641968,596.941040 530.552368,592.998657 526.612183,590.440918 
	C518.809082,585.375488 517.157532,578.535767 517.418457,569.665649 
	C518.010681,549.532532 516.340027,529.372192 517.542297,509.214325 
	C517.737854,505.935364 517.754883,503.398376 522.252014,503.513580 
	C526.993713,503.635040 526.070801,506.963348 526.082886,509.510315 
	C526.178467,529.840393 526.233643,550.172058 526.050232,570.500977 
	C526.007324,575.261475 526.420959,579.414062 530.835815,582.204590 
	C531.650146,582.719360 532.069885,583.871033 532.891235,584.360352 
	C541.789490,589.661682 541.308655,598.414246 539.840332,606.481934 
	C538.630920,613.126404 533.441040,617.826294 526.976868,620.574829 
	C524.203857,621.753906 521.695618,623.572632 522.699646,626.923096 
	C523.627258,630.018555 526.352966,631.113892 529.547607,630.357178 
	C531.779602,629.828552 533.474670,628.151550 532.640686,626.024841 
	C530.603943,620.830811 533.825256,617.932007 536.797791,614.821289 
	C545.021851,606.214844 545.446838,592.378723 536.338562,584.619629 
	C529.833496,579.078186 528.296570,573.135986 528.523376,565.152344 
	C529.034424,547.168884 528.689453,529.161194 528.693298,511.163361 
	C528.693481,510.330139 528.649353,509.493378 528.709351,508.664337 
	C528.879150,506.316895 527.951965,503.264984 531.926880,503.189758 
	C535.897522,503.114594 535.266846,506.080994 535.272217,508.498932 
	C535.306519,523.830322 535.302734,539.161804 535.310852,554.493225 
	C535.311401,555.493103 535.442505,556.515198 535.283447,557.489441 
	C533.504761,568.379700 536.422791,577.316040 545.810181,583.778442 
	C548.469177,585.608887 549.210022,588.474365 549.163147,591.706970 
	C549.052246,599.370544 549.081543,607.038574 549.211243,614.702148 
	C549.268433,618.079102 548.202271,620.706421 545.846863,623.200073 
	C539.241089,630.193665 533.352600,637.890198 525.025757,643.109558 
	C522.732544,644.546875 522.499023,647.032104 523.549805,649.355164 
	C524.504211,651.465149 526.330505,652.781921 528.768433,652.372803 
	C531.348511,651.939941 533.741760,650.048035 532.800842,647.637512 
	C529.604919,639.449951 535.747498,635.375916 540.292725,631.677612 
	C549.218567,624.414917 552.474365,615.694397 550.878479,604.623230 
	C550.525757,602.176208 550.502563,599.571289 550.924377,597.142761 
	C552.480225,588.184875 548.470398,581.782654 541.779663,576.633423 
	C538.847473,574.376831 537.740540,571.603638 537.762085,568.008362 
	C537.880920,548.178467 537.914612,528.348083 537.958252,508.517792 
	C537.964539,505.647614 538.150330,503.049133 542.089905,503.236786 
	C546.075684,503.426636 545.253540,506.400848 545.261475,508.741760 
	C545.307373,522.239929 545.335815,535.738953 545.217834,549.236389 
	C545.191162,552.284668 546.068054,554.543762 548.281677,556.723999 
	C559.433533,567.707703 570.387634,578.892090 581.529053,589.886475 
	C583.385559,591.718445 584.030273,593.682312 584.039612,596.108643 
	C584.068420,603.607544 584.592224,611.139954 584.043396,618.594604 
	C583.581970,624.862366 585.489441,629.520630 590.219116,633.383850 
	C594.230835,636.660583 597.152893,640.043762 592.717407,645.444275 
	C591.182007,647.313782 591.665771,650.381653 594.525757,651.814697 
	C597.241028,653.175354 599.469116,652.266907 600.895386,649.766296 
	C602.315308,647.277039 602.057312,644.969727 599.349060,643.360229 
	C598.783325,643.023987 597.812195,642.706604 597.753113,642.280029 
	C596.820374,635.547058 591.028625,632.322876 587.308960,627.613403 
	C585.863586,625.783447 585.901917,623.566406 585.907837,621.399109 
	C585.928711,613.733582 585.695374,606.051941 586.126526,598.408386 
	C586.426819,593.085144 584.587769,589.278809 580.799438,585.687805 
	C570.884949,576.289673 561.310974,566.533325 551.454468,557.072632 
	C548.717285,554.445435 547.550781,551.651428 547.605164,547.840698 
	C547.788208,535.011536 547.656799,522.178040 547.682678,509.346375 
	C547.688232,506.591248 547.023193,503.477661 551.595032,503.509216 
	C556.548767,503.543457 555.031982,507.114075 555.059265,509.582184 
	C555.193787,521.745728 555.209839,533.911621 555.126343,546.075684 
	C555.106812,548.927490 555.866943,551.077820 557.957520,553.146790 
	C568.731689,563.809265 579.310120,574.669495 590.074341,585.342163 
	C592.257263,587.506531 593.323608,589.771423 593.235229,592.835266 
	C593.095947,597.663696 593.642151,602.546509 593.119690,607.321106 
	C592.361206,614.251465 594.646912,619.545593 599.875427,623.931824 
	C602.033447,625.742188 603.714905,628.115051 605.842651,629.968567 
	C608.306641,632.114990 609.716675,634.217346 608.350708,637.706787 
	C607.627747,639.553650 608.118652,641.709045 610.676270,642.896851 
	C611.005249,643.003174 610.981384,642.981628 610.981384,642.981628 
M560.967529,614.284058 
	C561.595398,622.161743 560.052673,628.837769 552.636719,633.513794 
	C548.924072,635.854614 546.299255,639.857361 542.913696,642.799072 
	C539.857117,645.454956 538.812134,648.481445 539.093811,652.474426 
	C539.389160,656.659302 540.190979,661.000122 536.237183,664.501160 
	C534.447327,666.086060 534.547852,669.008911 536.639587,670.766785 
	C538.785156,672.569885 541.454346,672.453613 543.477356,670.545288 
	C545.594055,668.548706 545.477234,665.916077 543.588318,663.835632 
	C542.203796,662.310791 540.953918,661.049255 540.992554,658.764771 
	C541.109619,651.856323 541.342041,645.166138 547.821289,640.532959 
	C550.632751,638.522522 552.837769,635.681641 555.444336,633.359558 
	C556.750793,632.195679 558.100525,630.743347 560.453857,631.436279 
	C561.780701,634.450439 561.722534,637.472778 559.919006,640.321899 
	C558.724121,642.209473 557.844421,644.139404 557.981445,646.384460 
	C558.192993,649.851624 557.602661,652.907837 554.827271,655.410278 
	C553.441162,656.660034 552.843750,658.523438 553.953918,660.419128 
	C554.848877,661.947205 556.137573,662.915161 557.983215,662.945251 
	C559.753601,662.974121 561.338074,662.475586 562.229858,660.849915 
	C563.375427,658.761536 563.137939,656.756104 561.706482,654.789734 
	C558.504761,650.391418 558.626404,645.855347 561.654785,641.467163 
	C563.019958,639.488953 562.872070,637.412048 562.858704,635.253906 
	C562.779297,622.437012 562.727356,609.619934 562.654053,596.802917 
	C562.641541,594.612976 562.739075,592.582031 564.542969,590.862976 
	C566.538574,588.961243 567.426697,586.606079 564.978943,584.370605 
	C563.165527,582.714417 560.849060,581.643127 558.712341,583.502625 
	C556.361572,585.548523 556.244202,588.436707 558.335999,590.620300 
	C560.682434,593.069580 560.990234,595.786255 560.942566,598.856934 
	C560.867676,603.682678 560.955627,608.510925 560.967529,614.284058 
M598.341003,513.574707 
	C599.895630,518.930847 602.283508,519.975647 606.371582,516.776245 
	C608.049133,515.463379 609.672180,514.711548 611.771484,514.653564 
	C616.598328,514.520325 621.443115,514.492798 626.242554,514.028625 
	C636.189758,513.066589 644.901123,514.536194 651.403320,523.363708 
	C654.180786,527.134338 660.626465,526.785278 663.794861,523.348450 
	C667.289734,519.557556 670.446228,516.880676 675.479614,521.341736 
	C677.210876,522.876160 680.093079,522.395142 681.885986,520.480774 
	C683.398621,518.865601 683.258240,516.701660 682.288635,514.853088 
	C681.262939,512.897400 678.637512,511.467865 677.317566,512.615967 
	C673.635193,515.818909 668.349731,515.596252 664.953735,519.031494 
	C658.390320,525.670654 655.740723,525.694214 649.338257,519.079712 
	C648.411865,518.122620 647.443054,517.189880 646.636658,516.136597 
	C644.301025,513.086243 641.304260,512.162598 637.478760,512.276794 
	C629.322266,512.520203 621.152527,512.308167 612.988220,512.313660 
	C610.636658,512.315247 608.519592,512.075989 606.412476,510.604156 
	C603.130310,508.311584 600.118164,508.661743 598.341003,513.574707 
M631.663574,586.817932 
	C628.982300,582.072998 624.181885,579.651428 620.268188,576.238220 
	C617.959106,574.224365 615.955566,572.194946 613.003662,574.451172 
	C610.969849,576.005615 609.422119,578.273560 611.092529,580.945923 
	C612.968567,583.947144 615.978760,583.912964 618.555786,582.312012 
	C622.062500,580.133484 624.440552,581.343201 626.802185,583.947937 
	C628.476807,585.794861 630.295166,587.512634 631.950256,589.376038 
	C635.580261,593.462952 638.796936,598.148987 645.415039,597.122925 
	C646.575928,596.942932 647.500305,597.957947 648.358276,598.790955 
	C650.954407,601.311829 653.736816,603.000916 656.987915,599.826233 
	C658.924683,597.934998 659.264465,595.718384 657.400146,593.610535 
	C654.507996,590.340759 651.703674,591.445862 648.684387,593.740662 
	C645.210266,596.381104 641.508667,595.980286 638.229309,593.252686 
	C636.064819,591.452393 634.180664,589.315247 631.663574,586.817932 
M578.417908,608.722168 
	C576.812073,605.336304 574.493774,602.830872 570.703552,605.409851 
	C567.187134,607.802551 567.492859,610.905151 570.637390,613.716003 
	C572.171570,615.087402 572.144592,616.966431 572.157227,618.798889 
	C572.187012,623.121033 572.213257,627.443787 572.179626,631.765747 
	C572.163391,633.850037 572.557190,635.638733 574.298584,637.074646 
	C578.296143,640.370972 578.374084,643.981018 574.916626,647.779968 
	C572.936279,649.955994 572.658630,652.282959 574.970886,654.341492 
	C577.105164,656.241638 579.646240,656.363220 581.741028,654.416992 
	C584.096619,652.228455 583.976685,649.551880 581.624512,647.440308 
	C579.696838,645.709778 578.992737,643.709900 578.972778,641.283752 
	C578.960022,639.727051 578.593628,638.231262 577.331787,637.262268 
	C574.334473,634.960449 573.930664,631.812622 573.988708,628.354553 
	C574.100464,621.705383 572.760986,614.751465 578.417908,608.722168 
M630.185547,604.322144 
	C632.935425,607.338623 636.168884,609.840149 637.072388,614.356689 
	C637.588562,616.936951 640.285706,618.227966 643.081726,617.194641 
	C645.943420,616.136963 647.320740,613.784119 646.393188,610.839661 
	C645.545471,608.148438 643.401123,606.921265 640.491333,607.784241 
	C638.700928,608.315186 636.976379,608.906006 635.443481,607.208496 
	C630.539978,601.778198 625.188721,596.854797 619.334045,592.439087 
	C617.329346,590.927124 615.500610,589.497620 613.152710,591.078491 
	C610.982117,592.539978 609.474304,594.684265 610.772278,597.452332 
	C611.956787,599.978455 614.595886,600.778320 616.686707,599.569153 
	C622.841858,596.009338 626.209045,599.820496 630.185547,604.322144 
z"/>
<path fill="#000000" opacity="1.000000" stroke="none" 
	d="
M441.906067,554.847046 
	C453.173309,558.418396 458.902588,566.187683 460.348450,577.199829 
	C461.790436,588.182678 456.481262,596.292419 446.932129,603.698242 
	C460.795807,603.698242 473.085205,604.209167 485.295410,603.448547 
	C490.225220,603.141479 494.215302,599.081177 496.279602,594.167847 
	C497.727142,590.722473 495.612122,588.077209 493.640198,585.572937 
	C491.898163,583.360596 489.623291,582.277588 486.692566,582.330078 
	C480.863800,582.434570 475.030426,582.391785 469.200653,582.301880 
	C464.114288,582.223511 462.499481,579.919983 464.422150,575.398254 
	C466.236053,571.132385 465.041992,568.121948 460.938385,566.256897 
	C459.748016,565.715881 458.807617,565.170837 459.025543,563.777893 
	C459.250641,562.338867 460.531311,562.091064 461.687378,561.992981 
	C464.168274,561.782532 466.368622,562.238037 467.364563,564.953674 
	C467.822906,566.203552 468.367340,567.423523 468.788055,568.685303 
	C471.484833,576.772705 471.478760,576.843384 480.225037,576.630005 
	C488.880737,576.418945 497.531494,576.004456 506.187164,575.791260 
	C507.904083,575.748901 510.142944,575.186157 510.974426,577.421021 
	C511.627991,579.177551 511.530090,581.042114 509.647888,582.298645 
	C508.068024,583.353333 508.232086,584.927429 508.884857,586.319031 
	C511.894348,592.734680 511.165924,598.227112 503.153198,603.334534 
	C512.045898,602.418640 511.372650,607.134949 511.349091,611.792297 
	C511.236877,633.949585 511.170837,656.108459 511.347687,678.264709 
	C511.384399,682.864441 509.958405,684.445618 505.324432,684.178223 
	C455.802490,681.320923 413.503693,662.423706 378.443787,627.342712 
	C372.422333,621.317749 367.046082,614.742798 362.365082,607.622559 
	C361.326752,606.043213 360.077454,604.901855 358.444580,603.929626 
	C351.339783,599.699585 348.347015,592.306335 350.506836,584.757751 
	C352.613892,577.393616 360.149811,571.665771 367.626465,571.745605 
	C374.624481,571.820312 381.919617,577.969971 383.724091,585.315613 
	C385.089844,590.875305 383.115692,596.716919 377.398163,603.407715 
	C391.575714,603.407715 405.410248,603.407715 419.933533,603.407715 
	C407.099274,591.748596 403.440704,578.735535 413.501862,563.955933 
	C419.142181,555.670471 431.461121,551.861938 441.906067,554.847046 
M432.087677,592.597778 
	C433.085175,592.632263 434.088623,592.754272 435.079193,592.686951 
	C441.357849,592.259583 446.108276,587.733459 446.698456,581.667419 
	C447.361389,574.852905 443.739136,569.556519 437.194489,567.770813 
	C431.682251,566.266907 425.925720,569.089233 423.168762,574.647339 
	C419.573547,581.895447 422.737671,588.815063 432.087677,592.597778 
M362.306732,595.341614 
	C365.617004,597.435242 368.929443,597.451477 371.934937,594.911743 
	C374.074371,593.103760 375.020264,590.663574 374.294373,587.785522 
	C373.428253,584.351318 371.140015,582.358337 367.749481,581.822632 
	C364.646484,581.332397 362.288269,582.859070 360.666656,585.403503 
	C358.512024,588.784241 358.893555,591.981079 362.306732,595.341614 
z"/>
<path fill="#000000" opacity="1.000000" stroke="none" 
	d="
M410.092468,513.596436 
	C420.911102,513.621704 431.243286,513.728027 441.573456,513.627319 
	C445.270233,513.591309 447.734253,515.432861 446.086731,518.613525 
	C442.393097,525.744385 445.764404,532.658447 445.640106,539.634521 
	C445.556824,544.310059 446.851349,548.075073 452.400787,549.633423 
	C456.538177,550.795288 456.311768,555.174194 456.647003,558.760864 
	C454.097137,560.006226 453.082275,557.912109 451.730164,556.973328 
	C434.587250,545.070984 411.432678,553.157471 405.834534,573.026733 
	C405.054199,575.796265 404.980347,578.623718 405.037659,581.447144 
	C405.093933,584.221619 403.873260,585.416626 401.139374,585.306702 
	C399.309753,585.233093 397.451599,585.127380 395.645233,585.351013 
	C389.509491,586.110840 385.708923,584.787109 382.728241,578.102600 
	C377.758331,566.956909 360.023895,566.608887 352.868317,576.613037 
	C351.692474,578.257019 351.138672,580.659546 347.696625,581.278259 
	C349.763123,572.518860 347.710236,563.931152 349.242645,555.501953 
	C349.857483,552.119812 352.834320,550.362000 356.106720,549.658264 
	C360.491577,548.715271 364.906128,547.877808 369.339905,547.206116 
	C372.546265,546.720459 373.884460,545.210693 373.742401,541.876709 
	C373.567535,537.771179 373.488556,533.716431 375.371552,529.699829 
	C376.437225,527.426697 375.975922,524.426880 374.054932,522.156982 
	C372.843567,520.725525 371.680756,519.260254 373.496948,517.048157 
	C377.138092,517.639648 379.668915,520.061951 379.776642,523.511719 
	C379.963593,529.499695 383.094177,534.997009 382.230713,541.109314 
	C381.995911,542.771179 381.656250,545.065918 384.317627,545.453186 
	C386.996613,545.842957 388.123993,544.262085 388.776306,541.836182 
	C390.245026,536.374329 391.962067,530.979675 393.482819,525.531128 
	C394.006073,523.656616 394.257629,522.084656 392.487671,520.161072 
	C389.632507,517.058044 391.285706,513.567871 395.637207,513.324707 
	C400.273682,513.065613 404.947632,513.477112 410.092468,513.596436 
M393.461731,561.646118 
	C398.937408,562.415649 403.488434,561.414917 406.623871,556.129272 
	C407.921356,553.942017 410.134705,551.899170 412.416229,550.770691 
	C418.761658,547.632324 421.115997,542.699646 420.439301,535.923645 
	C420.341492,534.944275 420.567474,533.936768 420.580109,532.941467 
	C420.752167,519.376587 420.783112,521.507629 409.123596,521.280212 
	C408.127228,521.260803 407.119659,521.376953 406.135223,521.267883 
	C402.882568,520.907715 401.362000,522.541077 400.477173,525.517090 
	C397.402771,535.857422 394.648621,546.278564 392.406403,556.826904 
	C392.098480,558.275574 391.066132,560.053467 393.461731,561.646118 
M437.778625,529.510010 
	C437.749084,528.510559 437.599091,527.497375 437.710785,526.513977 
	C438.207764,522.138184 435.929565,521.200256 432.045197,521.242004 
	C428.291718,521.282349 425.866333,521.915833 426.234039,526.429688 
	C426.490356,529.576111 426.303375,532.758667 426.314728,535.925049 
	C426.344360,544.184692 426.485535,544.198364 434.711090,543.733398 
	C437.795807,543.559143 438.906036,542.249451 438.645905,539.379761 
	C438.375397,536.395691 438.096405,533.412415 437.778625,529.510010 
z"/>
<path fill="#000000" opacity="1.000000" stroke="none" 
	d="
M552.375122,331.517090 
	C557.167786,333.977325 561.407166,336.649353 565.160339,339.956696 
	C566.954285,341.537567 570.969055,342.589142 567.678467,346.400055 
	C562.994385,351.824799 562.405151,352.067108 558.231750,348.647278 
	C550.502625,342.313721 541.826294,337.797241 532.138062,335.484985 
	C510.386047,330.293640 490.982849,335.556152 473.615112,349.218292 
	C469.520111,352.439575 468.619537,352.154907 464.242737,346.935059 
	C461.360077,343.497192 464.349915,342.162628 466.312714,340.682983 
	C493.018738,320.550446 521.534485,316.723114 552.375122,331.517090 
z"/>
<path fill="#000000" opacity="1.000000" stroke="none" 
	d="
M537.208984,346.613770 
	C542.545837,349.105377 547.178162,351.965454 551.561646,355.336273 
	C554.843262,357.859833 554.828064,359.777679 551.730774,362.320007 
	C550.356995,363.447571 549.458008,365.153503 548.990906,365.758484 
	C546.258850,365.905396 545.541870,364.886566 544.656555,364.174133 
	C526.974365,349.945099 506.073425,349.558594 488.458069,363.797729 
	C483.908600,367.475220 482.168915,364.525604 479.564178,362.120300 
	C476.177185,358.992615 478.914368,357.098846 481.081726,355.370026 
	C497.975037,341.894958 516.629517,339.209259 537.208984,346.613770 
z"/>
<path fill="#000000" opacity="1.000000" stroke="none" 
	d="
M524.484009,375.344055 
	C516.057190,372.032898 508.633331,373.684601 502.266724,379.044556 
	C497.704163,382.885712 496.635803,378.151001 494.430878,376.499664 
	C491.594727,374.375580 492.958252,372.328491 495.048462,370.368103 
	C505.840912,360.245972 527.060303,360.396881 537.594543,370.677765 
	C539.477661,372.515594 540.875610,374.382233 538.072083,376.334229 
	C535.801514,377.915039 534.636780,383.073639 530.258789,378.955994 
	C528.722046,377.510681 526.664612,376.619019 524.484009,375.344055 
z"/>
<path fill="#000000" opacity="1.000000" stroke="none" 
	d="
M519.300049,383.058899 
	C525.483826,386.030640 528.272583,390.990784 527.082031,396.333252 
	C525.966003,401.341309 521.380371,404.863495 516.098267,404.769775 
	C510.827576,404.676300 506.346191,400.807190 505.250122,395.403778 
	C503.693237,387.728699 509.734985,382.211884 519.300049,383.058899 
z"/>
<path fill="#000000" opacity="1.000000" stroke="none" 
	d="
M560.297241,379.617126 
	C565.036743,386.340179 564.791992,391.403625 559.855103,394.534210 
	C555.771545,397.123688 550.277344,396.380249 547.177368,392.818695 
	C544.083130,389.263763 543.934448,383.749634 546.845459,380.511993 
	C550.683411,376.243469 554.805542,375.877014 560.297241,379.617126 
z"/>
<path fill="#000000" opacity="1.000000" stroke="none" 
	d="
M476.320740,409.094971 
	C472.923553,412.167572 469.491241,414.094757 465.271210,412.006042 
	C461.908966,410.341949 460.030792,407.445526 459.968964,403.651978 
	C459.901428,399.508270 461.554382,396.148743 465.507904,394.493408 
	C469.147644,392.969513 472.906494,393.176300 475.454803,396.445679 
	C478.343872,400.152252 479.596802,404.378632 476.320740,409.094971 
z"/>
<path fill="#000000" opacity="1.000000" stroke="none" 
	d="
M511.151886,505.671875 
	C511.324432,513.380432 511.340790,513.217896 504.189026,512.497986 
	C494.511261,511.523682 485.445709,508.665527 476.773621,504.854279 
	C476.804291,502.815674 477.989685,502.936737 478.912140,503.003479 
	C488.548950,503.700806 498.195526,503.803619 507.850159,503.606293 
	C509.195862,503.578766 510.575592,503.594147 511.151886,505.671875 
z"/>
<path fill="#000000" opacity="1.000000" stroke="none" 
	d="
M591.507568,400.982422 
	C592.809631,407.690125 591.628479,410.423035 587.025269,411.542267 
	C583.224792,412.466248 580.015503,411.408112 578.423889,407.647247 
	C576.955139,404.176605 578.042664,401.038727 581.097656,398.946167 
	C584.723572,396.462524 588.727661,397.251556 591.507568,400.982422 
z"/>
<path fill="#000000" opacity="1.000000" stroke="none" 
	d="
M611.018005,643.013550 
	C610.933105,642.712585 610.861389,642.390259 610.733521,642.091858 
	C609.755798,639.810425 609.276672,637.529297 612.112915,636.305420 
	C613.875488,635.544922 615.534302,636.361694 615.901794,638.246338 
	C616.511902,641.375061 614.607422,642.675110 611.365906,642.964661 
	C610.981384,642.981628 611.005249,643.003174 611.018005,643.013550 
z"/>
<path fill="#000000" opacity="1.000000" stroke="none" 
	d="
M646.233459,533.085083 
	C647.579224,535.148865 647.627258,536.878967 645.872253,538.232971 
	C644.627014,539.193665 643.312622,538.707947 642.211365,537.823425 
	C641.035217,536.878845 640.701172,535.605103 641.420654,534.256165 
	C642.436218,532.352173 643.931152,531.663818 646.233459,533.085083 
z"/>
<path fill="#000000" opacity="1.000000" stroke="none" 
	d="
M597.190063,644.657349 
	C599.828796,645.086365 600.526245,646.553345 599.983215,648.638611 
	C599.626282,650.009460 598.706177,650.975342 597.167297,650.946899 
	C595.664551,650.919189 594.683899,650.005188 594.315613,648.632385 
	C593.741394,646.491821 594.648376,645.143799 597.190063,644.657349 
z"/>
<path fill="#000000" opacity="1.000000" stroke="none" 
	d="
M688.230530,535.212036 
	C688.687622,538.215271 687.568665,539.711914 684.806274,539.200684 
	C683.068604,538.879150 682.474304,537.281738 683.059448,535.772888 
	C684.144592,532.974487 686.053528,533.301880 688.230530,535.212036 
z"/>
<path fill="#000000" opacity="1.000000" stroke="none" 
	d="
M628.976196,630.935608 
	C626.233215,632.325745 624.876770,631.251038 624.591187,628.785889 
	C624.419556,627.304138 625.268738,626.000732 626.916260,626.332397 
	C629.221375,626.796448 630.363403,628.230652 628.976196,630.935608 
z"/>
<path fill="#000000" opacity="1.000000" stroke="none" 
	d="
M558.589478,587.008179 
	C559.270325,584.655457 560.632935,583.661743 562.702515,584.252991 
	C564.099487,584.652039 564.758423,585.897034 564.583008,587.324036 
	C564.396667,588.839600 563.752075,590.306213 562.053284,590.533264 
	C559.803284,590.833801 558.861023,589.375122 558.589478,587.008179 
z"/>
<path fill="#000000" opacity="1.000000" stroke="none" 
	d="
M556.221924,659.081543 
	C556.564880,654.304077 558.874207,655.891602 561.487549,657.179260 
	C560.249146,659.653503 558.283875,659.358582 556.221924,659.081543 
z"/>
<path fill="#000000" opacity="1.000000" stroke="none" 
	d="
M680.718140,517.836792 
	C679.437866,520.002563 678.012939,521.062134 676.347473,518.919373 
	C675.347107,517.632324 675.380493,515.794373 676.928406,515.004028 
	C679.228149,513.829895 680.753296,514.731445 680.718140,517.836792 
z"/>
<path fill="#000000" opacity="1.000000" stroke="none" 
	d="
M655.527588,598.160339 
	C653.839111,599.830872 652.380310,599.974243 651.226807,598.171326 
	C650.487549,597.015930 650.481323,595.666199 651.185120,594.439209 
	C651.844727,593.289368 652.957825,592.900208 654.123779,593.403015 
	C656.139343,594.272278 656.560547,595.869141 655.527588,598.160339 
z"/>
<path fill="#000000" opacity="1.000000" stroke="none" 
	d="
M571.591370,611.764893 
	C569.544495,609.316711 570.058411,607.526489 572.632812,606.564026 
	C574.258118,605.956360 575.752686,606.730713 575.939087,608.499756 
	C576.236755,611.325195 574.551392,612.291992 571.591370,611.764893 
z"/>
<path fill="#000000" opacity="1.000000" stroke="none" 
	d="
M578.259399,652.205444 
	C578.083130,650.916992 576.055176,650.583374 577.040588,649.142334 
	C577.665588,648.228333 578.700623,648.236450 579.682800,648.607056 
	C580.688782,648.986572 581.375427,649.701538 581.178162,650.817383 
	C580.914856,652.307129 580.350037,653.628052 578.413940,653.344299 
	C578.341614,653.333679 578.281982,653.071655 578.260864,652.920654 
	C578.238708,652.762878 578.270203,652.597534 578.259399,652.205444 
z"/>
<path fill="#000000" opacity="1.000000" stroke="none" 
	d="
M614.562927,598.296509 
	C612.538025,597.304932 611.564453,596.051697 612.625732,594.169556 
	C613.315552,592.946167 614.479675,592.243896 615.986755,592.563171 
	C617.274963,592.835938 618.081055,593.682983 618.096680,594.991089 
	C618.121582,597.075256 617.391907,598.598022 614.562927,598.296509 
z"/>
<path fill="#000000" opacity="1.000000" stroke="none" 
	d="
M641.894287,615.676514 
	C638.756042,615.173767 637.911987,613.419739 639.161621,611.023987 
	C640.029358,609.360535 642.004883,608.756836 643.383484,610.102539 
	C645.541382,612.209045 644.803223,614.230774 641.894287,615.676514 
z"/>
<path fill="#000000" opacity="1.000000" stroke="none" 
	d="
M439.213318,584.010376 
	C436.074219,587.111694 432.950562,587.042542 430.010468,584.661499 
	C427.705475,582.794800 427.210510,580.232239 428.579742,577.478577 
	C430.229950,574.160034 433.008148,572.690552 436.379059,574.128906 
	C440.716644,575.979614 441.278625,579.563660 439.213318,584.010376 
z"/>
<path fill="#000000" opacity="1.000000" stroke="none" 
	d="
M363.513977,590.504639 
	C363.153992,587.000610 364.168701,584.860107 367.808716,585.462524 
	C369.558716,585.752136 370.760620,587.009277 371.008240,588.839172 
	C371.202820,590.277405 370.477692,591.437622 369.279236,592.177002 
	C367.005096,593.580017 365.198456,592.718872 363.513977,590.504639 
z"/>
</svg>